<svg width="24" height="24" viewBox="0 0 24 24" fill="none" xmlns="http://www.w3.org/2000/svg">
<g clip-path="url(#clip0_171_78)">
<path d="M12.2466 7.44667C11.7071 7.4473 11.172 7.54438 10.6666 7.73334L16.5333 13.6C16.7247 13.0884 16.8219 12.5463 16.82 12C16.8147 10.7905 16.3305 9.63244 15.4734 8.77909C14.6163 7.92574 13.4561 7.44666 12.2466 7.44667Z" fill="white"/>
<path d="M22.8599 11.6867C20.6133 7.53334 16.6733 5.02 12.3133 5.02C11.1262 5.02279 9.94705 5.21406 8.81995 5.58667L9.89328 6.66667C10.6838 6.46236 11.4967 6.35711 12.3133 6.35334C16.0666 6.35334 19.4799 8.44667 21.5133 11.9733C20.7674 13.2817 19.7786 14.4357 18.5999 15.3733L19.5466 16.32C20.9107 15.2196 22.0435 13.8601 22.8799 12.32L23.0533 12L22.8599 11.6867Z" fill="white"/>
<path d="M3.24667 3.85333L6.22 6.82667C4.34062 8.03674 2.8046 9.71051 1.76 11.6867L1.58667 12L1.76 12.32C4.00667 16.4733 7.94667 18.9867 12.3067 18.9867C14.0084 18.9863 15.6881 18.6012 17.22 17.86L20.5533 21.1933L21.72 20.1933L4.38667 2.86L3.24667 3.85333ZM8.78 9.38667C8.15629 10.2663 7.86395 11.3382 7.95475 12.4127C8.04554 13.4871 8.51361 14.4948 9.27607 15.2573C10.0385 16.0197 11.0462 16.4878 12.1207 16.5786C13.1951 16.6694 14.2671 16.377 15.1467 15.7533L16.2133 16.82C14.9785 17.3478 13.6496 17.62 12.3067 17.62C8.55334 17.62 5.14 15.5267 3.10667 12C4.08247 10.2721 5.48782 8.82547 7.18667 7.8L8.78 9.38667Z" fill="white"/>
</g>
<defs>
<clipPath id="clip0_171_78">
<rect width="24" height="24" fill="white"/>
</clipPath>
</defs>
</svg>
