<svg width="40" height="40" viewBox="0 0 40 40" fill="none" xmlns="http://www.w3.org/2000/svg">
<path d="M6.66669 8.33332C6.66669 7.8913 6.84228 7.46737 7.15484 7.15481C7.4674 6.84225 7.89133 6.66666 8.33335 6.66666H15C15.442 6.66666 15.866 6.84225 16.1785 7.15481C16.4911 7.46737 16.6667 7.8913 16.6667 8.33332V16.6667C16.6667 17.1087 16.4911 17.5326 16.1785 17.8452C15.866 18.1577 15.442 18.3333 15 18.3333H8.33335C7.89133 18.3333 7.4674 18.1577 7.15484 17.8452C6.84228 17.5326 6.66669 17.1087 6.66669 16.6667V8.33332ZM23.3334 8.33332C23.3334 7.8913 23.5089 7.46737 23.8215 7.15481C24.1341 6.84225 24.558 6.66666 25 6.66666H31.6667C32.1087 6.66666 32.5326 6.84225 32.8452 7.15481C33.1578 7.46737 33.3334 7.8913 33.3334 8.33332V11.6667C33.3334 12.1087 33.1578 12.5326 32.8452 12.8452C32.5326 13.1577 32.1087 13.3333 31.6667 13.3333H25C24.558 13.3333 24.1341 13.1577 23.8215 12.8452C23.5089 12.5326 23.3334 12.1087 23.3334 11.6667V8.33332ZM6.66669 26.6667C6.66669 26.2246 6.84228 25.8007 7.15484 25.4881C7.4674 25.1756 7.89133 25 8.33335 25H15C15.442 25 15.866 25.1756 16.1785 25.4881C16.4911 25.8007 16.6667 26.2246 16.6667 26.6667V31.6667C16.6667 32.1087 16.4911 32.5326 16.1785 32.8452C15.866 33.1577 15.442 33.3333 15 33.3333H8.33335C7.89133 33.3333 7.4674 33.1577 7.15484 32.8452C6.84228 32.5326 6.66669 32.1087 6.66669 31.6667V26.6667ZM23.3334 21.6667C23.3334 21.2246 23.5089 20.8007 23.8215 20.4881C24.1341 20.1756 24.558 20 25 20H31.6667C32.1087 20 32.5326 20.1756 32.8452 20.4881C33.1578 20.8007 33.3334 21.2246 33.3334 21.6667V31.6667C33.3334 32.1087 33.1578 32.5326 32.8452 32.8452C32.5326 33.1577 32.1087 33.3333 31.6667 33.3333H25C24.558 33.3333 24.1341 33.1577 23.8215 32.8452C23.5089 32.5326 23.3334 32.1087 23.3334 31.6667V21.6667Z" stroke="#71C7EC" stroke-width="2"/>
</svg>
