<svg width="45" height="45" viewBox="0 0 45 45" fill="none" xmlns="http://www.w3.org/2000/svg">
<path d="M28.125 3.75H7.5C6.46447 3.75 5.625 4.58947 5.625 5.625V39.375C5.625 40.4105 6.46447 41.25 7.5 41.25H28.125C29.1605 41.25 30 40.4105 30 39.375V5.625C30 4.58947 29.1605 3.75 28.125 3.75Z" stroke="#F8F8F8" stroke-width="3" stroke-linecap="round" stroke-linejoin="round"/>
<path d="M37.5 28.125H22.5C20.4289 28.125 18.75 29.8039 18.75 31.875C18.75 33.9461 20.4289 35.625 22.5 35.625H37.5C39.5711 35.625 41.25 33.9461 41.25 31.875C41.25 29.8039 39.5711 28.125 37.5 28.125Z" stroke="#F8F8F8" stroke-width="3" stroke-linecap="round" stroke-linejoin="round"/>
<path d="M11.25 13.125C12.2855 13.125 13.125 12.2855 13.125 11.25C13.125 10.2145 12.2855 9.375 11.25 9.375C10.2145 9.375 9.375 10.2145 9.375 11.25C9.375 12.2855 10.2145 13.125 11.25 13.125Z" fill="#F8F8F8"/>
<path d="M11.25 18.75C12.2855 18.75 13.125 17.9105 13.125 16.875C13.125 15.8395 12.2855 15 11.25 15C10.2145 15 9.375 15.8395 9.375 16.875C9.375 17.9105 10.2145 18.75 11.25 18.75Z" fill="#F8F8F8"/>
<path d="M11.25 24.375C12.2855 24.375 13.125 23.5355 13.125 22.5C13.125 21.4645 12.2855 20.625 11.25 20.625C10.2145 20.625 9.375 21.4645 9.375 22.5C9.375 23.5355 10.2145 24.375 11.25 24.375Z" fill="#F8F8F8"/>
<path d="M17.8125 13.125C18.848 13.125 19.6875 12.2855 19.6875 11.25C19.6875 10.2145 18.848 9.375 17.8125 9.375C16.777 9.375 15.9375 10.2145 15.9375 11.25C15.9375 12.2855 16.777 13.125 17.8125 13.125Z" fill="#F8F8F8"/>
<path d="M17.8125 18.75C18.848 18.75 19.6875 17.9105 19.6875 16.875C19.6875 15.8395 18.848 15 17.8125 15C16.777 15 15.9375 15.8395 15.9375 16.875C15.9375 17.9105 16.777 18.75 17.8125 18.75Z" fill="#F8F8F8"/>
<path d="M17.8125 24.375C18.848 24.375 19.6875 23.5355 19.6875 22.5C19.6875 21.4645 18.848 20.625 17.8125 20.625C16.777 20.625 15.9375 21.4645 15.9375 22.5C15.9375 23.5355 16.777 24.375 17.8125 24.375Z" fill="#F8F8F8"/>
<path d="M24.375 13.125C25.4105 13.125 26.25 12.2855 26.25 11.25C26.25 10.2145 25.4105 9.375 24.375 9.375C23.3395 9.375 22.5 10.2145 22.5 11.25C22.5 12.2855 23.3395 13.125 24.375 13.125Z" fill="#F8F8F8"/>
<path d="M24.375 18.75C25.4105 18.75 26.25 17.9105 26.25 16.875C26.25 15.8395 25.4105 15 24.375 15C23.3395 15 22.5 15.8395 22.5 16.875C22.5 17.9105 23.3395 18.75 24.375 18.75Z" fill="#F8F8F8"/>
<path d="M24.375 24.375C25.4105 24.375 26.25 23.5355 26.25 22.5C26.25 21.4645 25.4105 20.625 24.375 20.625C23.3395 20.625 22.5 21.4645 22.5 22.5C22.5 23.5355 23.3395 24.375 24.375 24.375Z" fill="#F8F8F8"/>
</svg>
