<svg width="70" height="74" viewBox="0 0 70 74" fill="none" xmlns="http://www.w3.org/2000/svg">
<path d="M44 2H5.5C3.567 2 2 3.567 2 5.5V68.5C2 70.433 3.567 72 5.5 72H44C45.933 72 47.5 70.433 47.5 68.5V5.5C47.5 3.567 45.933 2 44 2Z" stroke="#F2EBE3" stroke-width="3" stroke-linecap="round" stroke-linejoin="round"/>
<path d="M61.5 47.5H33.5C29.634 47.5 26.5 50.634 26.5 54.5C26.5 58.366 29.634 61.5 33.5 61.5H61.5C65.366 61.5 68.5 58.366 68.5 54.5C68.5 50.634 65.366 47.5 61.5 47.5Z" stroke="#F2EBE3" stroke-width="3" stroke-linecap="round" stroke-linejoin="round"/>
<path d="M12.5 19.5C14.433 19.5 16 17.933 16 16C16 14.067 14.433 12.5 12.5 12.5C10.567 12.5 9 14.067 9 16C9 17.933 10.567 19.5 12.5 19.5Z" fill="#F2EBE3"/>
<path d="M12.5 30C14.433 30 16 28.433 16 26.5C16 24.567 14.433 23 12.5 23C10.567 23 9 24.567 9 26.5C9 28.433 10.567 30 12.5 30Z" fill="#F2EBE3"/>
<path d="M12.5 40.5C14.433 40.5 16 38.933 16 37C16 35.067 14.433 33.5 12.5 33.5C10.567 33.5 9 35.067 9 37C9 38.933 10.567 40.5 12.5 40.5Z" fill="#F2EBE3"/>
<path d="M24.75 19.5C26.683 19.5 28.25 17.933 28.25 16C28.25 14.067 26.683 12.5 24.75 12.5C22.817 12.5 21.25 14.067 21.25 16C21.25 17.933 22.817 19.5 24.75 19.5Z" fill="#F2EBE3"/>
<path d="M24.75 30C26.683 30 28.25 28.433 28.25 26.5C28.25 24.567 26.683 23 24.75 23C22.817 23 21.25 24.567 21.25 26.5C21.25 28.433 22.817 30 24.75 30Z" fill="#F2EBE3"/>
<path d="M24.75 40.5C26.683 40.5 28.25 38.933 28.25 37C28.25 35.067 26.683 33.5 24.75 33.5C22.817 33.5 21.25 35.067 21.25 37C21.25 38.933 22.817 40.5 24.75 40.5Z" fill="#F2EBE3"/>
<path d="M37 19.5C38.933 19.5 40.5 17.933 40.5 16C40.5 14.067 38.933 12.5 37 12.5C35.067 12.5 33.5 14.067 33.5 16C33.5 17.933 35.067 19.5 37 19.5Z" fill="#F2EBE3"/>
<path d="M37 30C38.933 30 40.5 28.433 40.5 26.5C40.5 24.567 38.933 23 37 23C35.067 23 33.5 24.567 33.5 26.5C33.5 28.433 35.067 30 37 30Z" fill="#F2EBE3"/>
<path d="M37 40.5C38.933 40.5 40.5 38.933 40.5 37C40.5 35.067 38.933 33.5 37 33.5C35.067 33.5 33.5 35.067 33.5 37C33.5 38.933 35.067 40.5 37 40.5Z" fill="#F2EBE3"/>
</svg>
