<svg width="7" height="15" viewBox="0 0 7 15" fill="none" xmlns="http://www.w3.org/2000/svg">
<path d="M6.85449 6.63666L1.62601 0.168222C1.53877 0.0602389 1.42286 0 1.30234 0C1.18181 0 1.0659 0.0602389 0.978663 0.168222L0.973034 0.175531C0.930595 0.22788 0.896802 0.290891 0.87371 0.360732C0.850618 0.430573 0.83871 0.505783 0.83871 0.581788C0.83871 0.657793 0.850618 0.733004 0.87371 0.802844C0.896802 0.872685 0.930595 0.935696 0.973034 0.988045L5.89661 7.07885L0.973034 13.1672C0.930595 13.2196 0.896802 13.2826 0.87371 13.3524C0.850618 13.4223 0.83871 13.4975 0.83871 13.5735C0.83871 13.6495 0.850618 13.7247 0.87371 13.7945C0.896802 13.8644 0.930595 13.9274 0.973034 13.9797L0.978663 13.987C1.0659 14.095 1.18181 14.1553 1.30234 14.1553C1.42286 14.1553 1.53877 14.095 1.62601 13.987L6.85449 7.51861C6.90047 7.46172 6.93708 7.39331 6.96209 7.3175C6.9871 7.2417 7 7.1601 7 7.07763C7 6.99517 6.9871 6.91356 6.96209 6.83776C6.93708 6.76196 6.90047 6.69354 6.85449 6.63666Z" fill="#71C7EC"/>
</svg>
